<?xml version="1.0" encoding="UTF-8" standalone="no"?>
<!-- Gnu Emacs Icon

   Copyright (C) 2008, 2009
   Free Software Foundation, Inc.

   This file is part of GNU Emacs.

   GNU Emacs is free software: you can redistribute it and/or modify
   it under the terms of the GNU General Public License as published by
   the Free Software Foundation; either version 3 of the License, or
   (at your option) any later version.

   GNU Emacs is distributed in the hope that it will be useful,
   but WITHOUT ANY WARRANTY; without even the implied warranty of
   MERCHANTABILITY or FITNESS FOR A PARTICULAR PURPOSE.  See the
   GNU General Public License for more details.

   You should have received a copy of the GNU General Public License
   along with GNU Emacs.  If not, see <http://www.gnu.org/licenses/>.

-->

<!-- Created with Inkscape (http://www.inkscape.org/) -->

<svg
   xmlns:dc="http://purl.org/dc/elements/1.1/"
   xmlns:cc="http://creativecommons.org/ns#"
   xmlns:rdf="http://www.w3.org/1999/02/22-rdf-syntax-ns#"
   xmlns:svg="http://www.w3.org/2000/svg"
   xmlns="http://www.w3.org/2000/svg"
   xmlns:xlink="http://www.w3.org/1999/xlink"
   xmlns:sodipodi="http://sodipodi.sourceforge.net/DTD/sodipodi-0.dtd"
   xmlns:inkscape="http://www.inkscape.org/namespaces/inkscape"
   version="1.0"
   width="48"
   height="48"
   viewBox="0.171 0.201 512 512"
   id="svg4768"
   xml:space="preserve"
   inkscape:version="0.48.4 r9939"
   sodipodi:docname="haskel-mode2.svg"><metadata
     id="metadata3183"><rdf:RDF><cc:Work
         rdf:about=""><dc:format>image/svg+xml</dc:format><dc:type
           rdf:resource="http://purl.org/dc/dcmitype/StillImage" /><dc:title></dc:title></cc:Work></rdf:RDF></metadata><sodipodi:namedview
     pagecolor="#ffffff"
     bordercolor="#666666"
     borderopacity="1"
     objecttolerance="10"
     gridtolerance="10"
     guidetolerance="10"
     inkscape:pageopacity="0"
     inkscape:pageshadow="2"
     inkscape:window-width="1042"
     inkscape:window-height="626"
     id="namedview3181"
     showgrid="false"
     inkscape:zoom="4.7339512"
     inkscape:cx="6.8604697"
     inkscape:cy="15.749086"
     inkscape:window-x="288"
     inkscape:window-y="153"
     inkscape:window-maximized="0"
     inkscape:current-layer="svg4768" /><defs
     id="defs4770"><linearGradient
       inkscape:collect="always"
       id="linearGradient3906"><stop
         style="stop-color:#524e9b;stop-opacity:1"
         offset="0"
         id="stop3908" /><stop
         style="stop-color:#9a98bd;stop-opacity:1"
         offset="1"
         id="stop3910" /></linearGradient><linearGradient
       inkscape:collect="always"
       id="linearGradient4429"><stop
         style="stop-color:#bab8db;stop-opacity:1;"
         offset="0"
         id="stop4431" /><stop
         style="stop-color:#bab8db;stop-opacity:0;"
         offset="1"
         id="stop4433" /></linearGradient><inkscape:perspective
       sodipodi:type="inkscape:persp3d"
       inkscape:vp_x="0 : 24 : 1"
       inkscape:vp_y="0 : 1000 : 0"
       inkscape:vp_z="48 : 24 : 1"
       inkscape:persp3d-origin="24 : 16 : 1"
       id="perspective4109" /><linearGradient
       id="linearGradient3294"><stop
         id="stop3296"
         style="stop-color:#6376e6;stop-opacity:1"
         offset="0" /><stop
         id="stop3302"
         style="stop-color:#222989;stop-opacity:1"
         offset="0.50094414" /><stop
         id="stop3298"
         style="stop-color:#00003d;stop-opacity:1"
         offset="1" /></linearGradient><linearGradient
       id="linearGradient3284"><stop
         id="stop3286"
         style="stop-color:#000000;stop-opacity:1"
         offset="0" /><stop
         id="stop3292"
         style="stop-color:#000000;stop-opacity:0.49803922"
         offset="0.84845906" /><stop
         id="stop3288"
         style="stop-color:#000000;stop-opacity:0"
         offset="1" /></linearGradient><linearGradient
       id="linearGradient3274"><stop
         id="stop3276"
         style="stop-color:#000000;stop-opacity:1"
         offset="0" /><stop
         id="stop3278"
         style="stop-color:#000000;stop-opacity:0"
         offset="1" /></linearGradient><linearGradient
       id="linearGradient3262"><stop
         id="stop3264"
         style="stop-color:#000000;stop-opacity:1"
         offset="0" /><stop
         id="stop3266"
         style="stop-color:#000000;stop-opacity:0"
         offset="1" /></linearGradient><linearGradient
       id="linearGradient3242"><stop
         id="stop3244"
         style="stop-color:#282828;stop-opacity:1"
         offset="0" /><stop
         id="stop3252"
         style="stop-color:#808080;stop-opacity:1"
         offset="0.39253417" /><stop
         id="stop3246"
         style="stop-color:#d9d9d9;stop-opacity:1"
         offset="1" /></linearGradient><linearGradient
       id="linearGradient3202"><stop
         id="stop3204"
         style="stop-color:#2b2b2b;stop-opacity:1"
         offset="0" /><stop
         id="stop3250"
         style="stop-color:#828383;stop-opacity:1"
         offset="0.5" /><stop
         id="stop3206"
         style="stop-color:#dadbdb;stop-opacity:1"
         offset="1" /></linearGradient><linearGradient
       id="linearGradient4966"><stop
         id="stop4968"
         style="stop-color:#b6b3d8;stop-opacity:1"
         offset="0" /><stop
         id="stop4970"
         style="stop-color:#b6b3d8;stop-opacity:0"
         offset="1" /></linearGradient><linearGradient
       id="linearGradient4938"><stop
         id="stop4940"
         style="stop-color:#000000;stop-opacity:1"
         offset="0" /><stop
         id="stop4942"
         style="stop-color:#000000;stop-opacity:0"
         offset="1" /></linearGradient><linearGradient
       id="linearGradient4898"><stop
         id="stop4900"
         style="stop-color:#bab8db;stop-opacity:1"
         offset="0" /><stop
         id="stop4902"
         style="stop-color:#5955a9;stop-opacity:0.99159664"
         offset="1" /></linearGradient><linearGradient
       id="linearGradient4876"><stop
         id="stop4878"
         style="stop-color:#d3d2e8;stop-opacity:1"
         offset="0" /><stop
         id="stop4880"
         style="stop-color:#5955a9;stop-opacity:0.99159664"
         offset="1" /></linearGradient><radialGradient
       cx="20.951529"
       cy="-108.96888"
       r="266.76535"
       fx="20.951529"
       fy="-108.96888"
       id="radialGradient4892"
       xlink:href="#linearGradient4898"
       gradientUnits="userSpaceOnUse"
       gradientTransform="matrix(1.2360499,0,0,1.0147165,-3355.6485,-2448.9898)" /><radialGradient
       cx="233.8876"
       cy="471.26172"
       r="170.49393"
       fx="233.8876"
       fy="471.26172"
       id="radialGradient4944"
       xlink:href="#linearGradient4938"
       gradientUnits="userSpaceOnUse"
       gradientTransform="matrix(1.3677169,0,0,0.26302246,-64.518757,297.35882)" /><radialGradient
       cx="299.70135"
       cy="371.76376"
       r="76.696358"
       fx="299.70135"
       fy="371.76376"
       id="radialGradient4972"
       xlink:href="#linearGradient4966"
       gradientUnits="userSpaceOnUse"
       gradientTransform="matrix(2.9787108,0,0,1.8616941,-4206.9798,-2987.9057)" /><radialGradient
       cx="289.44067"
       cy="390.45248"
       r="17.67668"
       fx="289.44067"
       fy="390.45248"
       id="radialGradient3210"
       xlink:href="#linearGradient3202"
       gradientUnits="userSpaceOnUse"
       gradientTransform="matrix(1.0612461,0.84462994,-1.2946187,1.6266412,527.27366,-778.11758)" /><radialGradient
       cx="283.50717"
       cy="382.14804"
       r="17.67668"
       fx="283.50717"
       fy="382.14804"
       id="radialGradient3238"
       xlink:href="#linearGradient3202"
       gradientUnits="userSpaceOnUse"
       gradientTransform="matrix(1.0612461,0.84462994,-1.2946187,1.6266412,786.90593,-1072.094)" /><radialGradient
       cx="418.45551"
       cy="181.18982"
       r="63.068935"
       fx="418.45551"
       fy="181.18982"
       id="radialGradient3248"
       xlink:href="#linearGradient3242"
       gradientUnits="userSpaceOnUse"
       gradientTransform="matrix(-0.16778338,-0.15283029,4.3173605,-4.739776,79.325705,478.46043)" /><radialGradient
       cx="354.51709"
       cy="357.33591"
       r="33.712105"
       fx="354.51709"
       fy="357.33591"
       id="radialGradient3268"
       xlink:href="#linearGradient3262"
       gradientUnits="userSpaceOnUse"
       gradientTransform="matrix(0.4055116,-3.3440123e-2,0.1034174,4.3988695,177.23251,-1191.6649)" /><radialGradient
       cx="510.58469"
       cy="223.55537"
       r="132.28336"
       fx="510.58469"
       fy="223.55537"
       id="radialGradient3280"
       xlink:href="#linearGradient3274"
       gradientUnits="userSpaceOnUse"
       gradientTransform="matrix(-0.1339874,-0.1146812,0.3079048,-0.3597394,444.23592,395.03849)" /><radialGradient
       cx="284.4671"
       cy="-158.17821"
       r="110.2972"
       fx="284.4671"
       fy="-158.17821"
       id="radialGradient3290"
       xlink:href="#linearGradient3284"
       gradientUnits="userSpaceOnUse"
       gradientTransform="matrix(-3.1981763,3.5310397,-0.24640846,-0.18674452,1365.1782,-1085.382)" /><radialGradient
       cx="425.51019"
       cy="356.62274"
       r="143.34167"
       fx="425.51019"
       fy="356.62274"
       id="radialGradient3300"
       xlink:href="#linearGradient3294"
       gradientUnits="userSpaceOnUse"
       gradientTransform="matrix(-0.25799332,-0.20695541,2.7497662,-3.4278966,-325.16737,1103.5776)" /><clipPath
       id="clip1"><path
         inkscape:connector-curvature="0"
         d="m 0,340.15625 481.89062,0 L 481.89062,0 0,0 0,340.15625 z m 0,0"
         id="path3190" /></clipPath><radialGradient
       inkscape:collect="always"
       xlink:href="#linearGradient3284"
       id="radialGradient4407"
       gradientUnits="userSpaceOnUse"
       gradientTransform="matrix(-3.1981763,3.5310397,-0.24640846,-0.18674452,1365.1782,-1085.382)"
       cx="284.4671"
       cy="-158.17821"
       fx="284.4671"
       fy="-158.17821"
       r="110.2972" /><radialGradient
       inkscape:collect="always"
       xlink:href="#linearGradient3294"
       id="radialGradient4409"
       gradientUnits="userSpaceOnUse"
       gradientTransform="matrix(-0.25799332,-0.20695541,2.7497662,-3.4278966,-325.16737,1103.5776)"
       cx="425.51019"
       cy="356.62274"
       fx="425.51019"
       fy="356.62274"
       r="143.34167" /><radialGradient
       inkscape:collect="always"
       xlink:href="#linearGradient3202"
       id="radialGradient4411"
       gradientUnits="userSpaceOnUse"
       gradientTransform="matrix(1.0612461,0.84462994,-1.2946187,1.6266412,527.27366,-778.11758)"
       cx="289.44067"
       cy="390.45248"
       fx="289.44067"
       fy="390.45248"
       r="17.67668" /><radialGradient
       inkscape:collect="always"
       xlink:href="#linearGradient3202"
       id="radialGradient4413"
       gradientUnits="userSpaceOnUse"
       gradientTransform="matrix(1.0612461,0.84462994,-1.2946187,1.6266412,786.90593,-1072.094)"
       cx="283.50717"
       cy="382.14804"
       fx="283.50717"
       fy="382.14804"
       r="17.67668" /><radialGradient
       inkscape:collect="always"
       xlink:href="#linearGradient3242"
       id="radialGradient4415"
       gradientUnits="userSpaceOnUse"
       gradientTransform="matrix(-0.16778338,-0.15283029,4.3173605,-4.739776,79.325705,478.46043)"
       cx="418.45551"
       cy="181.18982"
       fx="418.45551"
       fy="181.18982"
       r="63.068935" /><radialGradient
       inkscape:collect="always"
       xlink:href="#linearGradient4429"
       id="radialGradient4435"
       cx="-127.65727"
       cy="-5.9579082"
       fx="-127.65727"
       fy="-5.9579082"
       r="33.252045"
       gradientTransform="matrix(0.98850563,-0.42528733,0.29299938,0.6810247,0.27832845,-56.124782)"
       gradientUnits="userSpaceOnUse" /><radialGradient
       cx="299.70135"
       cy="371.76376"
       r="76.696358"
       fx="299.70135"
       fy="371.76376"
       id="radialGradient4972-5"
       xlink:href="#linearGradient4966-8"
       gradientUnits="userSpaceOnUse"
       gradientTransform="matrix(1,0,0,0.9121621,0,32.654948)" /><linearGradient
       id="linearGradient4966-8"><stop
         id="stop4968-0"
         style="stop-color:#b6b3d8;stop-opacity:1"
         offset="0" /><stop
         id="stop4970-1"
         style="stop-color:#b6b3d8;stop-opacity:0"
         offset="1" /></linearGradient><linearGradient
       inkscape:collect="always"
       xlink:href="#linearGradient3906"
       id="linearGradient3912"
       x1="9.4451628"
       y1="27.865551"
       x2="9.4451628"
       y2="-6.8625436"
       gradientUnits="userSpaceOnUse" /><filter
       inkscape:collect="always"
       id="filter3972"><feGaussianBlur
         inkscape:collect="always"
         stdDeviation="1.6585727"
         id="feGaussianBlur3974" /></filter><filter
       inkscape:collect="always"
       id="filter4026"><feGaussianBlur
         inkscape:collect="always"
         stdDeviation="1.8434645"
         id="feGaussianBlur4028" /></filter><filter
       inkscape:collect="always"
       id="filter4058"><feGaussianBlur
         inkscape:collect="always"
         stdDeviation="1.0850001"
         id="feGaussianBlur4060" /></filter><filter
       inkscape:collect="always"
       id="filter4066"><feGaussianBlur
         inkscape:collect="always"
         stdDeviation="0.42833379"
         id="feGaussianBlur4068" /></filter><filter
       inkscape:collect="always"
       id="filter4082"><feGaussianBlur
         inkscape:collect="always"
         stdDeviation="0.54"
         id="feGaussianBlur4084" /></filter><filter
       inkscape:collect="always"
       id="filter4090"><feGaussianBlur
         inkscape:collect="always"
         stdDeviation="1.3150001"
         id="feGaussianBlur4092" /></filter></defs><path
     transform="matrix(8.4187318,0,0,8.4187318,177.17151,169.2659)"
     d="m 33.621367,9.4877434 a 24.567608,24.567608 0 1 1 -49.135216,0 24.567608,24.567608 0 1 1 49.135216,0 z"
     sodipodi:ry="24.567608"
     sodipodi:rx="24.567608"
     sodipodi:cy="9.4877434"
     sodipodi:cx="9.0537586"
     id="path3926"
     style="color:#000000;fill:#000000;fill-opacity:1;fill-rule:nonzero;stroke:none;stroke-width:1.12637710999999996;marker:none;visibility:visible;display:inline;overflow:visible;enable-background:accumulate;opacity:0.50214592000000002;filter:url(#filter3972)"
     sodipodi:type="arc" /><path
     sodipodi:type="arc"
     style="color:#000000;fill:#ffffff;fill-opacity:1;fill-rule:nonzero;stroke:none;stroke-width:1.12637711;marker:none;visibility:visible;display:inline;overflow:visible;enable-background:accumulate"
     id="path3924"
     sodipodi:cx="9.0537586"
     sodipodi:cy="9.4877434"
     sodipodi:rx="24.567608"
     sodipodi:ry="24.567608"
     d="m 33.621367,9.4877434 a 24.567608,24.567608 0 1 1 -49.135216,0 24.567608,24.567608 0 1 1 49.135216,0 z"
     transform="matrix(8.4187318,0,0,8.4187318,177.17151,169.2659)" /><path
     transform="matrix(8.4187318,0,0,8.4187318,177.17151,169.2659)"
     d="m 31.350328,9.4877434 a 22.29657,22.29657 0 1 1 -44.593139,0 22.29657,22.29657 0 1 1 44.593139,0 z"
     sodipodi:ry="22.29657"
     sodipodi:rx="22.29657"
     sodipodi:cy="9.4877434"
     sodipodi:cx="9.0537586"
     id="path4244"
     style="color:#000000;fill:url(#linearGradient3912);fill-opacity:1;fill-rule:nonzero;stroke:none;stroke-width:1.12637709000000008;marker:none;visibility:visible;display:inline;overflow:visible;enable-background:accumulate;stroke-opacity:1;stroke-miterlimit:4;stroke-dasharray:none"
     sodipodi:type="arc" /><path
     d="m 124.94329,341.81299 c 0,0 13.57421,3.94145 31.64305,6.19466 7.31747,0.9125 35.15898,4.10189 56.50553,4.01818 0,0 25.9982,0.0295 40.34907,-2.00908 15.01592,-2.13306 23.52308,-4.8553 28.25756,-10.28783 0.12331,-1.2953 2.28522,-5.51755 -3.55157,-9.58929 -14.92239,-10.40987 -34.2137,-13.2593 -71.68472,-22.15813 -41.43572,-10.4177 -53.81872,-20.39348 -60.00498,-27.61302 -5.865,-7.23552 1.1009,-22.26237 34.48928,-29.63399 16.90485,-4.11378 79.86605,-4.86966 79.86605,-4.86966 -18.06319,-14.3411 -51.97483,-40.01654 -58.90654,-45.47674 -6.07939,-4.78885 -15.87613,-12.13784 -16.92925,-18.70506 -1.42062,-6.39287 8.64222,-9.47093 13.96961,-9.82608 17.16604,-1.18386 40.60655,0.8287 61.44257,4.97224 10.47335,2.08276 12.31219,1.77579 12.31219,1.77579 14.91669,0.71032 26.51859,-7.10318 25.92665,-23.55892 -0.11843,-16.69248 -16.80792,-30.07742 -35.2792,-30.66208 -17.39446,-0.55059 -60.2587,2.48611 -60.2587,2.48611 49.95911,10.29962 58.12629,12.92803 60.73228,18.94184 1.53902,3.55159 -2.57086,7.0828 -16.33735,6.39286 -14.98739,-0.75111 -45.69716,-4.38029 -45.69716,-4.38029 -29.24144,-4.49868 -49.60391,-8.7606 -58.48288,2.84128 -5.80082,7.57965 0.82869,16.81087 3.43315,22.25664 11.6019,20.2441 31.66392,34.13308 44.39496,43.92139 4.79018,3.68294 19.41539,11.83863 19.41539,11.83863 -45.4604,-12.43057 -81.68661,-5.44577 -104.65362,6.62964 -26.400199,15.62701 -21.884189,41.99775 20.00729,66.65157 24.74274,14.56153 37.06226,21.5568 77.5739,26.53044 23.67961,3.77575 27.20804,5.32066 27.02808,7.29164 -0.25339,2.77495 -28.02718,3.82653 -35.66126,4.35303 -19.42112,1.33938 -69.64822,1.67423 -69.89938,1.67423 z"
     id="path3984"
     style="opacity:0.38197425000000002;fill:#000000;fill-opacity:1;fill-rule:evenodd;stroke:#000000;stroke-width:0;stroke-linecap:butt;stroke-linejoin:miter;stroke-miterlimit:4;stroke-opacity:1;stroke-dasharray:none;filter:url(#filter4026)"
     inkscape:connector-curvature="0" /><path
     inkscape:connector-curvature="0"
     id="path3976"
     d="m 232.0892,176.32677 46,68.66667 -40,60 c 9.74227,2.17726 19.37247,4.40185 28.66667,8 l 45.66667,-68 -42.66667,-64 c -3.92787,-0.43126 -7.83808,-0.79659 -11.66667,-1.33334 -7.69319,-1.23294 -15.53375,-2.44216 -23.33333,-3.33333 l -2.66667,0 z"
     style="opacity:0.39055798000000003;fill:#000000;fill-opacity:1;fill-rule:nonzero;stroke:none;filter:url(#filter4058)" /><path
     inkscape:connector-curvature="0"
     id="path3978"
     d="m 373.02422,250.85926 15.33334,23 45.66666,0 c 0.94283,-7.4444 1.66667,-14.96631 1.66667,-22.66666 0,-0.11211 2e-4,-0.22134 0,-0.33334 l -62.66667,0 z"
     style="opacity:0.39055798000000003;fill:#000000;fill-opacity:1;fill-rule:nonzero;stroke:none;filter:url(#filter4066)" /><path
     inkscape:connector-curvature="0"
     id="path3980"
     d="m 295.55586,177.10338 c -1.8186,1.35199 -3.54574,2.47938 -5.66666,3.33333 -2.62681,0.92768 -5.28453,1.41716 -8,1.66667 l 42.33333,63.66667 -45.66667,68.66667 34.33334,0 28.66666,-43 28.33334,43 34.33333,0 -91.33333,-137.33334 -17.33334,0 z"
     style="opacity:0.39055798000000003;fill:#000000;fill-opacity:1;fill-rule:nonzero;stroke:none;filter:url(#filter4090)" /><path
     inkscape:connector-curvature="0"
     id="path3982"
     d="m 350.42254,216.92425 15.33333,23 69.66667,0 c -0.50538,-7.82978 -1.18716,-15.47623 -2.66666,-23 l -82.33334,0 z"
     style="opacity:0.39055798000000003;fill:#000000;fill-opacity:1;fill-rule:nonzero;stroke:none;filter:url(#filter4082)" /><g
     id="g3900"
     style="fill:#000000"
     transform="translate(2.5832045,1.1607838)" /><path
     style="fill:#999999;fill-opacity:1;fill-rule:nonzero;stroke:none;opacity:1"
     d="M 21.40625 16.34375 L 25.71875 22.78125 L 21.96875 28.40625 C 22.882088 28.610368 23.784919 28.818923 24.65625 29.15625 L 28.9375 22.78125 L 24.9375 16.78125 C 24.569262 16.740821 24.20268 16.70657 23.84375 16.65625 C 23.122513 16.540661 22.387461 16.427297 21.65625 16.34375 L 21.40625 16.34375 z "
     id="path3195"
     transform="matrix(10.666667,0,0,10.666667,0.171,0.201)" /><path
     inkscape:connector-curvature="0"
     style="fill:#ffffff;fill-opacity:1;fill-rule:evenodd;stroke:#000000;stroke-width:0;stroke-linecap:butt;stroke-linejoin:miter;stroke-miterlimit:4;stroke-opacity:1;stroke-dasharray:none;opacity:1"
     id="path4111"
     d="m 122.81502,338.46147 c 0,0 13.57421,3.94145 31.64305,6.19466 7.31747,0.9125 35.15898,4.10189 56.50553,4.01818 0,0 25.9982,0.0295 40.34907,-2.00908 15.01592,-2.13306 23.52308,-4.8553 28.25756,-10.28783 0.12331,-1.2953 2.28522,-5.51755 -3.55157,-9.58929 -14.92239,-10.40987 -34.2137,-13.2593 -71.68472,-22.15813 -41.43572,-10.4177 -53.81872,-20.39348 -60.00498,-27.61302 -5.865,-7.23552 1.1009,-22.26237 34.48928,-29.63399 16.90485,-4.11378 79.86605,-4.86966 79.86605,-4.86966 -18.06319,-14.3411 -51.97483,-40.01654 -58.90654,-45.47674 -6.07939,-4.78885 -15.87613,-12.13784 -16.92925,-18.70506 -1.42062,-6.39287 8.64222,-9.47093 13.96961,-9.82608 17.16604,-1.18386 40.60655,0.8287 61.44257,4.97224 10.47335,2.08276 12.31219,1.77579 12.31219,1.77579 14.91669,0.71032 26.51859,-7.10318 25.92665,-23.55892 -0.11843,-16.69248 -16.80792,-30.07742 -35.2792,-30.66208 -17.39446,-0.55059 -60.2587,2.48611 -60.2587,2.48611 49.95911,10.29962 58.12629,12.92803 60.73228,18.94184 1.53902,3.55159 -2.57086,7.0828 -16.33735,6.39286 -14.98739,-0.75111 -45.69716,-4.38029 -45.69716,-4.38029 -29.24144,-4.49868 -49.60391,-8.7606 -58.48288,2.84128 -5.80082,7.57965 0.82869,16.81087 3.43315,22.25664 11.6019,20.2441 31.66392,34.13308 44.39496,43.92139 4.79018,3.68294 19.41539,11.83863 19.41539,11.83863 -45.4604,-12.43057 -81.68661,-5.44577 -104.65362,6.62964 -26.4002,15.62701 -21.88419,41.99775 20.00729,66.65157 24.74274,14.56153 37.06226,21.5568 77.5739,26.53044 23.67961,3.77575 27.20804,5.32066 27.02808,7.29164 -0.25339,2.77495 -28.02718,3.82653 -35.66126,4.35303 -19.42112,1.33938 -69.64822,1.67423 -69.89938,1.67423 z" /><path
     style="fill:#b27fbf;fill-opacity:1;fill-rule:nonzero;stroke:none;opacity:1"
     d="M 34.65625 23.3125 L 36.09375 25.46875 L 40.375 25.46875 C 40.463386 24.770837 40.53125 24.065658 40.53125 23.34375 C 40.53125 23.333242 40.531269 23.323004 40.53125 23.3125 L 34.65625 23.3125 z "
     id="path3199"
     transform="matrix(10.666667,0,0,10.666667,0.171,0.201)" /><path
     style="fill:#cccccc;fill-opacity:1;fill-rule:nonzero;stroke:none"
     d="M 27.3125 16.34375 C 27.142006 16.470499 26.980087 16.576192 26.78125 16.65625 C 26.534987 16.743218 26.285826 16.789108 26.03125 16.8125 L 30 22.78125 L 25.71875 29.21875 L 28.9375 29.21875 L 31.625 25.1875 L 34.28125 29.21875 L 37.5 29.21875 L 28.9375 16.34375 L 27.3125 16.34375 z "
     transform="matrix(10.666667,0,0,10.666667,0.171,0.201)"
     id="path3197" /><path
     style="fill:#b27fbf;fill-opacity:1;fill-rule:nonzero;stroke:none"
     d="M 32.5 20.09375 L 33.9375 22.25 L 40.46875 22.25 C 40.42137 21.515958 40.357454 20.799104 40.21875 20.09375 L 32.5 20.09375 z "
     transform="matrix(10.666667,0,0,10.666667,0.171,0.201)"
     id="path3201" /><rect
     width="512"
     height="512"
     x="0.171"
     y="0.20100001"
     id="rect4772"
     style="fill:none;display:none" /><g
     id="g4788"
     style="display:none"><g
       id="g4790"
       style="display:inline" /></g><g
     id="g4806"
     style="display:none"><g
       id="g4808"
       style="display:inline"><path
         d="M 349.098,256.651 C 348.833,256.397 386.735,284.256 388.519,281.663 C 394.881,272.411 470.565,188.526 473.303,165.427 C 473.545,163.424 472.787,161.331 472.787,161.331 C 472.787,161.331 471.597,161.187 466.462,157.017 C 463.77,154.825 460.979,152.436 460.979,152.436 C 444.925,153.434 403.094,193.995 349.917,256.004"
         id="path4810"
         style="fill:#050505;display:none" /></g></g><g
     id="g4796"
     style="stroke:none"><g
       id="g4800"
       style="stroke:none" /></g><g
     id="g4774" /></svg>